<?xml version="1.0" standalone="no"?>
<!DOCTYPE svg PUBLIC "-//W3C//DTD SVG 20010904//EN"
 "http://www.w3.org/TR/2001/REC-SVG-20010904/DTD/svg10.dtd">
<svg version="1.0" xmlns="http://www.w3.org/2000/svg"
 width="48.000000pt" height="48.000000pt" viewBox="0 0 48.000000 48.000000"
 preserveAspectRatio="xMidYMid meet">

<g transform="translate(0.000000,48.000000) scale(0.100000,-0.100000)"
fill="#000000" stroke="none">
<path d="M55 427 c-40 -40 -49 -86 -43 -226 4 -106 16 -136 65 -168 40 -26
286 -26 326 0 49 32 61 62 65 168 6 140 -3 186 -43 226 l-33 33 -152 0 -152 0
-33 -33z m235 -32 c-10 -12 -8 -18 11 -34 20 -16 25 -17 32 -5 11 19 43 18 51
-2 3 -9 6 -40 6 -69 0 -30 5 -57 10 -60 6 -3 10 -15 10 -26 0 -30 -15 -15 -51
49 -49 87 -76 112 -121 112 -46 0 -63 -16 -113 -104 -40 -72 -55 -88 -55 -57
0 11 5 23 10 26 6 3 10 30 10 60 0 29 3 60 6 69 8 20 40 21 51 2 7 -12 12 -11
32 5 19 16 21 22 11 34 -11 13 -4 15 50 15 54 0 61 -2 50 -15z m11 -157 c23
-40 51 -83 61 -95 20 -22 17 -43 -6 -43 -7 0 -24 17 -37 37 -51 79 -115 80
-158 2 -22 -38 -43 -49 -56 -28 -4 6 2 20 12 32 11 12 38 55 62 95 29 49 48
72 61 72 13 0 32 -22 61 -72z m-28 -127 c9 -16 17 -32 17 -35 0 -3 -22 -6 -50
-6 -27 0 -50 3 -50 6 0 17 36 64 50 64 9 0 23 -13 33 -29z"/>
<path d="M227 284 c-13 -13 -7 -24 14 -24 11 0 19 5 17 12 -5 14 -22 21 -31
12z"/>
</g>
</svg>
